<mxfile host="app.diagrams.net" modified="2023-08-27T21:25:20.951Z" agent="Mozilla/5.0 (Macintosh; Intel Mac OS X 10_15_7) AppleWebKit/537.36 (KHTML, like Gecko) Chrome/115.0.0.0 Safari/537.36" version="21.6.9" etag="QDjouFxBiP32Iv4SUtfh" type="github">
  <diagram name="PÃ¡gina-1" id="1SVBK-mINGhIURSUDRTP">
    <mxGraphModel>
      <root>
        <mxCell id="0" />
        <mxCell id="1" parent="0" />
      </root>
    </mxGraphModel>
  </diagram>
</mxfile>
